<?xml version="1.0" encoding="UTF-8"?>
<svg version="1.1" xmlns="http://www.w3.org/2000/svg" width="512" height="512">
<path d="M0 0 C1.2231366 -0.00453111 2.4462732 -0.00906223 3.70647454 -0.01373065 C7.09415491 -0.02419229 10.48162278 -0.02570197 13.86930418 -0.02334189 C17.5258813 -0.02293335 21.18242688 -0.03397655 24.83898926 -0.04345703 C32.00040936 -0.06006015 39.16179655 -0.06556628 46.32323429 -0.06668179 C52.14585572 -0.06763265 57.96846629 -0.07174486 63.79108429 -0.07808304 C80.3062428 -0.09569409 96.82137533 -0.1049222 113.33654329 -0.10342209 C114.22662231 -0.10334218 115.11670133 -0.10326227 116.03375244 -0.10317993 C117.37050492 -0.10305729 117.37050492 -0.10305729 118.7342625 -0.10293217 C133.17339034 -0.10211946 147.61241383 -0.12125376 162.0515115 -0.14945666 C176.88429994 -0.17819945 191.71703752 -0.19199617 206.54985452 -0.19026911 C214.87458723 -0.18960566 223.19921055 -0.19507821 231.52391815 -0.21662521 C238.61252958 -0.23485545 245.70098204 -0.23916933 252.78960678 -0.22560637 C256.40407424 -0.21908575 260.01823689 -0.21892624 263.63267517 -0.23631287 C267.5570149 -0.25499548 271.48091191 -0.24246516 275.40527344 -0.22705078 C276.53933679 -0.23733791 277.67340015 -0.24762503 278.84182906 -0.25822389 C289.94050536 -0.1620325 297.71697044 3.1196446 305.753479 10.75180054 C311.49212004 17.30443321 314.08316515 24.51145858 314.07685852 33.12001038 C314.07814016 34.17128647 314.07814016 34.17128647 314.07944769 35.24380046 C314.08109784 37.59764856 314.07558871 39.95142577 314.07012939 42.30526733 C314.0698474 43.99041746 314.0700055 45.67556772 314.0705719 47.36071777 C314.07085938 51.94098328 314.06497056 56.52122272 314.05799794 61.10148215 C314.05175626 65.88610945 314.05115996 70.67073731 314.04997253 75.45536804 C314.04686163 84.51821994 314.03865147 93.58105982 314.02862304 102.64390641 C314.01745445 112.9605858 314.01194957 123.27726575 314.00692761 133.59394968 C313.99646867 154.81844835 313.97887387 176.04293619 313.956604 197.26742554 C312.85381104 197.05883911 311.75101807 196.85025269 310.61480713 196.63534546 C309.15583037 196.3603213 307.69684558 196.08533982 306.237854 195.81039429 C305.51243408 195.67306885 304.78701416 195.53574341 304.03961182 195.39425659 C272.83057863 189.52034687 241.36901596 195.87330399 214.9229126 213.63314819 C187.58511544 233.14229971 170.37284525 261.31312022 164.300354 294.15414429 C161.17812928 313.34873034 163.25226298 331.8755799 169.269104 350.26742554 C169.54053223 351.10289917 169.81196045 351.9383728 170.09161377 352.79916382 C171.64999056 357.30708637 173.46213158 361.06722328 176.05938721 365.06942749 C180.03917258 372.31965542 179.61847466 379.43401651 179.3237915 387.43539429 C179.29008534 388.96661245 179.25913773 390.49789357 179.23080444 392.02922058 C179.14960886 396.0233737 179.03143142 400.01557052 178.9050293 404.0085144 C178.78230318 408.09754854 178.69525877 412.18733353 178.6050415 416.27719116 C178.42344054 424.27508216 178.20269002 432.27125985 177.956604 440.26742554 C153.33915513 440.36091359 128.7217329 440.43142674 104.10414219 440.47467422 C92.67347335 440.49528953 81.24291489 440.52339052 69.81231689 440.56918335 C59.84809782 440.60908256 49.88395868 440.63486585 39.91966194 440.64377952 C34.64480722 440.648989 29.3701812 440.66121193 24.09539986 440.69034576 C19.1271308 440.71756346 14.15918393 440.72585764 9.1908474 440.71985626 C7.37080762 440.72095365 5.5507567 440.72886956 3.73078156 440.74424744 C-13.91099176 440.88595759 -13.91099176 440.88595759 -21.043396 436.26742554 C-21.75806754 435.82199528 -22.47273909 435.37656502 -23.20906734 434.91763687 C-30.62965505 430.08801447 -35.64505063 422.72082339 -38.043396 414.26742554 C-38.29639566 411.04587388 -38.29639566 411.04587388 -38.3006649 407.49753189 C-38.30417098 406.8385158 -38.30767705 406.17949971 -38.31128937 405.50051343 C-38.32058513 403.29466063 -38.31568486 401.08907289 -38.31082153 398.88320923 C-38.31455872 397.2847331 -38.31916052 395.6862588 -38.32455218 394.08778739 C-38.33678921 389.69681802 -38.33652088 385.3059248 -38.33416343 380.91494226 C-38.33375544 376.17860393 -38.34479273 371.44229007 -38.35427856 366.70596313 C-38.37089357 357.42695902 -38.37638834 348.14798031 -38.37750332 338.86896256 C-38.37845359 331.32628091 -38.38256283 323.78360765 -38.38890457 316.24092865 C-38.40651861 294.85606889 -38.41574323 273.47122922 -38.41424362 252.08636215 C-38.41416371 250.93342752 -38.4140838 249.78049289 -38.41400146 248.59262085 C-38.4139197 247.43827843 -38.41383794 246.28393601 -38.4137537 245.09461352 C-38.41294083 226.38758846 -38.43207834 207.68064392 -38.4602782 188.97364214 C-38.48900509 169.76544737 -38.50281859 150.55729188 -38.50109065 131.34907508 C-38.50042666 120.565133 -38.50592266 109.78127533 -38.52744675 98.9973526 C-38.54565599 89.81535797 -38.55000799 80.633486 -38.5364279 71.45148113 C-38.52989688 66.76769839 -38.5297859 62.084151 -38.5471344 57.40039062 C-38.56286427 53.10944874 -38.56000241 48.81892882 -38.54256614 44.52799723 C-38.53949604 42.97888185 -38.54312901 41.42973499 -38.55428629 39.88065675 C-38.63769058 27.47539599 -36.92271553 18.42926542 -28.1918335 9.24398804 C-19.64145314 1.37763811 -11.32710013 -0.03069358 0 0 Z M45.956604 86.32992554 C42.52944581 91.36356414 42.29891741 95.24635105 42.956604 101.26742554 C45.30453058 106.14388844 48.24421255 108.67080167 52.956604 111.26742554 C56.56392412 112.18928019 59.94560639 112.39666723 63.66040039 112.40786743 C64.79859222 112.41357758 65.93678406 112.41928772 67.10946655 112.4251709 C68.96884354 112.42684769 68.96884354 112.42684769 70.86578369 112.42855835 C72.83492233 112.43600571 72.83492233 112.43600571 74.84384155 112.44360352 C78.43907594 112.45669103 82.03429169 112.46316539 85.62954617 112.46761417 C87.87879878 112.47055095 90.12804637 112.47465691 92.37729645 112.47911835 C99.42365073 112.49278401 106.46999343 112.50245507 113.51636004 112.50632024 C121.63366598 112.51079808 129.75080329 112.52833706 137.86805797 112.55732083 C144.15360122 112.57898047 150.43909717 112.58902681 156.72467732 112.59036136 C160.47358905 112.59140637 164.22234206 112.59724915 167.97121429 112.61518097 C172.157528 112.63481655 176.34349142 112.63035568 180.52984619 112.62387085 C181.76133392 112.63308563 182.99282166 112.64230042 184.2616272 112.65179443 C195.15229001 112.67268659 195.15229001 112.67268659 204.57212448 107.81544876 C208.64260945 103.08037651 209.31256067 99.86841765 209.23394775 93.80648804 C208.82283956 90.04282151 207.4737404 88.04952366 204.956604 85.26742554 C199.479425 80.95560377 195.07793473 80.14756158 188.25280762 80.12698364 C187.11461578 80.1212735 185.97642395 80.11556335 184.80374146 80.10968018 C182.94436447 80.10800339 182.94436447 80.10800339 181.04742432 80.10629272 C179.07828568 80.09884537 179.07828568 80.09884537 177.06936646 80.09124756 C173.47413206 80.07816005 169.87891632 80.07168568 166.28366184 80.0672369 C164.03440922 80.06430012 161.78516164 80.06019417 159.53591156 80.05573273 C152.48955728 80.04206706 145.44321457 80.032396 138.39684796 80.02853084 C130.27954203 80.024053 122.16240472 80.00651401 114.04515004 79.97753024 C107.75960679 79.95587061 101.47411084 79.94582427 95.18853068 79.94448972 C91.43961896 79.9434447 87.69086595 79.93760193 83.94199371 79.9196701 C79.75568001 79.90003453 75.56971659 79.9044954 71.38336182 79.91098022 C70.15187408 79.90176544 68.92038635 79.89255066 67.65158081 79.88305664 C55.60843721 79.9335462 55.60843721 79.9335462 45.956604 86.32992554 Z M45.956604 150.32992554 C42.52944581 155.36356414 42.29891741 159.24635105 42.956604 165.26742554 C45.30453058 170.14388844 48.24421255 172.67080167 52.956604 175.26742554 C56.56392412 176.18928019 59.94560639 176.39666723 63.66040039 176.40786743 C64.79859222 176.41357758 65.93678406 176.41928772 67.10946655 176.4251709 C68.96884354 176.42684769 68.96884354 176.42684769 70.86578369 176.42855835 C72.83492233 176.43600571 72.83492233 176.43600571 74.84384155 176.44360352 C78.43907594 176.45669103 82.03429169 176.46316539 85.62954617 176.46761417 C87.87879878 176.47055095 90.12804637 176.47465691 92.37729645 176.47911835 C99.42365073 176.49278401 106.46999343 176.50245507 113.51636004 176.50632024 C121.63366598 176.51079808 129.75080329 176.52833706 137.86805797 176.55732083 C144.15360122 176.57898047 150.43909717 176.58902681 156.72467732 176.59036136 C160.47358905 176.59140637 164.22234206 176.59724915 167.97121429 176.61518097 C172.157528 176.63481655 176.34349142 176.63035568 180.52984619 176.62387085 C181.76133392 176.63308563 182.99282166 176.64230042 184.2616272 176.65179443 C195.15229001 176.67268659 195.15229001 176.67268659 204.57212448 171.81544876 C208.64260945 167.08037651 209.31256067 163.86841765 209.23394775 157.80648804 C208.82283956 154.04282151 207.4737404 152.04952366 204.956604 149.26742554 C199.479425 144.95560377 195.07793473 144.14756158 188.25280762 144.12698364 C187.11461578 144.1212735 185.97642395 144.11556335 184.80374146 144.10968018 C182.94436447 144.10800339 182.94436447 144.10800339 181.04742432 144.10629272 C179.07828568 144.09884537 179.07828568 144.09884537 177.06936646 144.09124756 C173.47413206 144.07816005 169.87891632 144.07168568 166.28366184 144.0672369 C164.03440922 144.06430012 161.78516164 144.06019417 159.53591156 144.05573273 C152.48955728 144.04206706 145.44321457 144.032396 138.39684796 144.02853084 C130.27954203 144.024053 122.16240472 144.00651401 114.04515004 143.97753024 C107.75960679 143.95587061 101.47411084 143.94582427 95.18853068 143.94448972 C91.43961896 143.9434447 87.69086595 143.93760193 83.94199371 143.9196701 C79.75568001 143.90003453 75.56971659 143.9044954 71.38336182 143.91098022 C70.15187408 143.90176544 68.92038635 143.89255066 67.65158081 143.88305664 C55.60843721 143.9335462 55.60843721 143.9335462 45.956604 150.32992554 Z M47.35974121 212.71951294 C43.25620709 217.42923271 42.60072792 220.67264718 42.67926025 226.72836304 C43.09036844 230.49202956 44.4394676 232.48532741 46.956604 235.26742554 C53.04485634 240.06030504 58.19540236 240.41680155 65.72515869 240.42855835 C66.87499741 240.43600571 66.87499741 240.43600571 68.04806519 240.44360352 C70.57487906 240.4581641 73.10163013 240.46501734 75.628479 240.47055054 C77.39339193 240.47630752 79.15830485 240.48206518 80.92321777 240.48782349 C84.62184946 240.49831648 88.32045953 240.5041701 92.019104 240.50765991 C96.74098536 240.5131375 101.46257735 240.53715697 106.18436813 240.56563187 C109.830534 240.58432616 113.47663115 240.58946748 117.12284088 240.59099579 C118.86263865 240.59400812 120.60243562 240.60198826 122.34218597 240.61518097 C136.32300556 241.33855052 136.32300556 241.33855052 148.5534668 235.81533813 C152.65700092 231.10561836 153.31248009 227.8622039 153.23394775 221.80648804 C152.82283956 218.04282151 151.4737404 216.04952366 148.956604 213.26742554 C142.86835167 208.47454604 137.71780565 208.11804953 130.18804932 208.10629272 C129.0382106 208.09884537 129.0382106 208.09884537 127.86514282 208.09124756 C125.33832895 208.07668698 122.81157788 208.06983373 120.284729 208.06430054 C118.51981608 208.05854355 116.75490316 208.05278589 114.98999023 208.04702759 C111.29135854 208.0365346 107.59274848 208.03068097 103.894104 208.02719116 C99.17222264 208.02171358 94.45063066 207.9976941 89.72883987 207.96921921 C86.082674 207.95052491 82.43657686 207.9453836 78.79036713 207.94385529 C77.05056936 207.94084296 75.31077239 207.93286281 73.57102203 207.9196701 C59.59020245 207.19630056 59.59020245 207.19630056 47.35974121 212.71951294 Z " fill="#000000" transform="translate(90.04339599609375,-0.267425537109375)"/>
<path d="M0 0 C0.85207031 0.48339844 1.70414063 0.96679688 2.58203125 1.46484375 C22.60759293 13.91316588 35.36357223 34.4224447 41 57 C46.46359811 80.89692979 40.72851048 104.47676621 28.2421875 124.87109375 C15.06725146 144.51094026 -4.07363338 157.47143475 -27 163 C-42.70028418 165.93904974 -59.90931085 165.28521832 -75 160 C-76.03640625 159.649375 -77.0728125 159.29875 -78.140625 158.9375 C-101.48819588 150.13632145 -118.01426408 132.39066308 -128.15869141 109.98681641 C-136.31343344 90.7287518 -137.61499084 65.63306297 -130 46 C-127.65159027 40.48946572 -124.95462244 35.20791795 -122 30 C-121.51660156 29.14792969 -121.03320312 28.29585938 -120.53515625 27.41796875 C-108.08683412 7.39240707 -87.5775553 -5.36357223 -65 -11 C-42.31331267 -16.22276504 -19.78055435 -11.22215638 0 0 Z M-31 40 C-35.74119681 44.55872312 -39.30370342 50.20728553 -42.875 55.6875 C-43.91910318 57.27484987 -44.9633746 58.8620891 -46.0078125 60.44921875 C-46.51344727 61.22056152 -47.01908203 61.9919043 -47.54003906 62.78662109 C-48.86279934 64.79199646 -50.20233571 66.78403784 -51.5546875 68.76953125 C-52.27914062 69.83558594 -53.00359375 70.90164063 -53.75 72 C-54.38421875 72.928125 -55.0184375 73.85625 -55.671875 74.8125 C-57.17299271 76.85840992 -57.17299271 76.85840992 -57 79 C-61.23118439 76.95996467 -65.25748327 74.88759668 -69.1875 72.3125 C-72.99936826 69.92638867 -75.53992859 68.52604129 -80.12890625 69.41015625 C-85.90547263 70.99942575 -88.64386668 73.07067919 -92 78 C-93.86318128 81.72636257 -93.41549957 85.93314055 -93 90 C-88.44301602 100.84996185 -69.3505821 110.82470895 -59 116 C-54.31397646 116.51411409 -50.25048879 116.52520529 -45.875 114.6875 C-36.59122826 106.00919164 -29.95321074 93.63443551 -22.97070312 83.0925293 C-21.73446855 81.23049186 -20.49320262 79.37178557 -19.24707031 77.51635742 C-17.42694012 74.80594616 -15.62209779 72.08591164 -13.8203125 69.36328125 C-13.26513947 68.54225418 -12.70996643 67.72122711 -12.13796997 66.87532043 C-8.65743259 61.56752987 -5.55030025 56.23701486 -6.25 49.64453125 C-8.48815104 44.17738107 -11.31761631 40.66202825 -16.88671875 38.1484375 C-22.23888026 36.40293885 -26.20918884 37.14656277 -31 40 Z " fill="#000000" transform="translate(418,236)"/>
<path d="M0 0 C0.74711243 0.47911835 1.49422485 0.95823669 2.26397705 1.45187378 C3.74060822 2.39584518 3.74060822 2.39584518 5.24707031 3.35888672 C6.22105774 3.98238007 7.19504517 4.60587341 8.19854736 5.2482605 C11.63313051 7.39589451 15.12109355 9.32986723 18.75 11.125 C19.42409912 11.45846436 20.09819824 11.79192871 20.79272461 12.13549805 C49.55336569 25.99439155 81.95894019 27.2892352 112 17 C122.92361341 12.95032469 132.53095523 7.78051242 142 1 C142.66 0.67 143.32 0.34 144 0 C144.09270652 12.28277243 144.16376857 24.56546152 144.20724869 36.84851265 C144.22811767 42.552129 144.25642323 48.25550586 144.30175781 53.95898438 C144.34523939 59.46382881 144.36914229 64.96844297 144.37950897 70.47344589 C144.38689613 72.57300313 144.40132153 74.67254785 144.42292023 76.77200699 C144.45198449 79.71432924 144.45595468 82.65570168 144.45410156 85.59814453 C144.46848267 86.46489304 144.48286377 87.33164154 144.49768066 88.22465515 C144.460761 93.64707863 143.58453388 96.68612868 140 101 C135.43864141 105.33329066 131.36689726 105.56315415 125.34863281 105.46875 C119.20322399 104.6085003 114.36956313 101.47621033 109.125 98.3125 C107.9537323 97.63369107 106.78101766 96.95737322 105.60693359 96.28344727 C99.85704167 92.96361657 94.18943461 89.51255916 88.53125 86.0390625 C87.53206543 85.43151123 86.53288086 84.82395996 85.50341797 84.19799805 C83.62088631 83.046604 81.74945179 81.8768145 79.89111328 80.68676758 C79.05306152 80.17009521 78.21500977 79.65342285 77.3515625 79.12109375 C76.62791504 78.6614624 75.90426758 78.20183105 75.15869141 77.72827148 C72.96410401 76.76148228 72.96410401 76.76148228 70.55419922 77.69018555 C67.9363864 79.03262158 65.34506617 80.39251086 62.78125 81.8359375 C61.77666748 82.40038574 60.77208496 82.96483398 59.73706055 83.54638672 C58.66883057 84.1498291 57.60060059 84.75327148 56.5 85.375 C55.39374268 85.99262207 54.28748535 86.61024414 53.14770508 87.24658203 C47.74242062 90.27416062 42.38310875 93.34818581 37.10546875 96.59375 C36.18894531 97.14756348 35.27242188 97.70137695 34.328125 98.27197266 C32.62319088 99.30697612 30.93056521 100.36266405 29.25390625 101.44287109 C22.93550361 105.24459975 17.31402149 105.94374471 10 105 C5.03468847 102.69467679 2.59566399 99.76833622 0 95 C-0.54740245 91.85778714 -0.50690832 88.78080577 -0.45410156 85.59814453 C-0.45468567 84.67067917 -0.45526978 83.74321381 -0.45587158 82.78764343 C-0.45309476 79.7356465 -0.4220214 76.68463788 -0.390625 73.6328125 C-0.38316119 71.51146986 -0.37746892 69.39012032 -0.37347412 67.26876831 C-0.3582289 61.69552449 -0.31895629 56.12270011 -0.2746582 50.54962158 C-0.23368174 44.8586596 -0.21545801 39.1676296 -0.1953125 33.4765625 C-0.15246127 22.31752443 -0.0842231 11.15879714 0 0 Z " fill="#000000" transform="translate(300,407)"/>
</svg>
